<?xml version="1.0" encoding="UTF-8" standalone="no"?>
<svg
   xmlns:dc="http://purl.org/dc/elements/1.1/"
   xmlns:cc="http://creativecommons.org/ns#"
   xmlns:rdf="http://www.w3.org/1999/02/22-rdf-syntax-ns#"
   xmlns:svg="http://www.w3.org/2000/svg"
   xmlns="http://www.w3.org/2000/svg"
   xmlns:sodipodi="http://sodipodi.sourceforge.net/DTD/sodipodi-0.dtd"
   xmlns:inkscape="http://www.inkscape.org/namespaces/inkscape"
   width="16"
   height="16"
   version="1.1"
   id="svg4"
   sodipodi:docname="language.svg"
   inkscape:version="1.0.1 (3bc2e813f5, 2020-09-07)">
  <metadata
     id="metadata10">
    <rdf:RDF>
      <cc:Work
         rdf:about="">
        <dc:format>image/svg+xml</dc:format>
        <dc:type
           rdf:resource="http://purl.org/dc/dcmitype/StillImage" />
      </cc:Work>
    </rdf:RDF>
  </metadata>
  <defs
     id="defs8" />
  <sodipodi:namedview
     pagecolor="#ffffff"
     bordercolor="#666666"
     borderopacity="1"
     objecttolerance="10"
     gridtolerance="10"
     guidetolerance="10"
     inkscape:pageopacity="0"
     inkscape:pageshadow="2"
     inkscape:window-width="2160"
     inkscape:window-height="1312"
     id="namedview6"
     showgrid="false"
     inkscape:zoom="45.9375"
     inkscape:cx="8"
     inkscape:cy="8"
     inkscape:window-x="0"
     inkscape:window-y="30"
     inkscape:window-maximized="1"
     inkscape:current-layer="svg4" />
  <g
     id="g6"
     transform="matrix(0.03251438,0,0,0.03251438,0.3591207,0.3591207)"
     style="fill:#363636;fill-opacity:1">
    <path
       d="m 432.5,227.5 h -77.031 c -0.611,-37.438 -5.782,-73.616 -14.771,-105.694 h 50.518 c 4.143,0 7.5,-3.357 7.5,-7.5 0,-4.143 -3.357,-7.5 -7.5,-7.5 H 336.104 C 328.086,82.641 317.788,61.285 305.551,44.15 c -2.408,-3.371 -7.093,-4.153 -10.462,-1.745 -3.371,2.407 -4.152,7.092 -1.745,10.462 10.618,14.868 19.688,33.199 26.965,53.939 H 242.5 V 37.5 c 0,-4.143 -3.357,-7.5 -7.5,-7.5 -4.143,0 -7.5,3.357 -7.5,7.5 v 69.306 h -77.81 c 7.277,-20.74 16.347,-39.071 26.965,-53.939 2.407,-3.37 1.626,-8.055 -1.745,-10.462 -3.372,-2.407 -8.055,-1.625 -10.462,1.745 -12.237,17.135 -22.535,38.492 -30.553,62.656 H 78.783 c -4.143,0 -7.5,3.357 -7.5,7.5 0,4.143 3.357,7.5 7.5,7.5 h 50.518 C 120.313,153.884 115.142,190.062 114.53,227.5 H 37.5 c -4.143,0 -7.5,3.357 -7.5,7.5 0,4.143 3.357,7.5 7.5,7.5 h 77.031 c 0.611,37.438 5.782,73.616 14.771,105.694 H 78.783 c -4.143,0 -7.5,3.357 -7.5,7.5 0,4.143 3.357,7.5 7.5,7.5 h 55.112 c 8.019,24.169 18.32,45.529 30.56,62.666 1.464,2.049 3.77,3.142 6.11,3.142 1.508,0 3.031,-0.454 4.353,-1.397 3.37,-2.408 4.151,-7.092 1.744,-10.463 -10.621,-14.869 -19.693,-33.204 -26.972,-53.947 H 227.5 V 432.5 c 0,4.143 3.357,7.5 7.5,7.5 4.143,0 7.5,-3.357 7.5,-7.5 v -69.306 h 77.81 c -7.278,20.744 -16.351,39.078 -26.972,53.947 -2.407,3.371 -1.626,8.055 1.744,10.463 1.321,0.943 2.844,1.397 4.353,1.397 2.341,0 4.646,-1.093 6.11,-3.142 12.24,-17.137 22.54,-38.497 30.56,-62.666 h 55.112 c 4.143,0 7.5,-3.357 7.5,-7.5 0,-4.143 -3.357,-7.5 -7.5,-7.5 h -50.519 c 8.989,-32.078 14.16,-68.256 14.771,-105.694 H 432.5 c 4.143,0 7.5,-3.357 7.5,-7.5 0,-4.143 -3.357,-7.499 -7.5,-7.499 z M 325.14,121.806 c 9.313,31.683 14.695,67.958 15.326,105.694 H 242.5 V 121.806 Z m -180.28,0 H 227.5 V 227.5 h -97.966 c 0.632,-37.737 6.013,-74.011 15.326,-105.694 z m 0,226.388 C 135.547,316.511 130.165,280.236 129.534,242.5 H 227.5 v 105.694 z m 180.28,0 H 242.5 V 242.5 h 97.966 c -0.632,37.737 -6.013,74.012 -15.326,105.694 z"
       id="path2-3"
       style="fill:#363636;fill-opacity:1" />
    <path
       d="M 401.17,68.83 C 356.784,24.444 297.771,0 235,0 172.229,0 113.216,24.444 68.83,68.83 24.444,113.216 0,172.229 0,235.001 0,281.272 13.391,325.9 38.764,364.317 l -28.718,86.148 c -0.898,2.695 -0.197,5.667 1.812,7.676 2.009,2.008 4.979,2.708 7.676,1.812 l 86.15,-28.716 C 144.102,456.609 188.729,470 235,470 297.771,470 356.784,445.556 401.17,401.17 445.556,356.784 470,297.771 470,235.001 470,172.229 445.556,113.216 401.17,68.83 Z M 235,455 c -44.491,0 -87.355,-13.222 -123.961,-38.235 -1.262,-0.862 -2.739,-1.308 -4.231,-1.308 -0.797,0 -1.598,0.127 -2.372,0.385 L 29.02,440.979 54.16,365.565 c 0.741,-2.225 0.399,-4.668 -0.923,-6.604 C 28.222,322.357 15,279.492 15,235.001 15,113.692 113.691,15 235,15 356.309,15 455,113.692 455,235.001 455,356.309 356.309,455 235,455 Z"
       id="path4"
       style="fill:#363636;fill-opacity:1" />
  </g>
</svg>
